<?xml version="1.0" standalone="no"?>
<!DOCTYPE svg PUBLIC "-//W3C//DTD SVG 20010904//EN"
 "http://www.w3.org/TR/2001/REC-SVG-20010904/DTD/svg10.dtd">
<svg version="1.0" xmlns="http://www.w3.org/2000/svg"
 width="350.000000pt" height="250.000000pt" viewBox="0 0 350.000000 250.000000"
 preserveAspectRatio="xMidYMid meet">
<script>
alert(1);
</script>
<g transform="translate(0.000000,250.000000) scale(0.100000,-0.100000)"
fill="#000000" stroke="none">
<path d="M0 1250 l0 -1250 1750 0 1750 0 0 1250 0 1250 -1750 0 -1750 0 0
-1250z m776 1089 c56 -17 77 -31 124 -77 66 -67 88 -119 97 -234 l6 -78 -135
0 -135 0 -6 50 c-12 97 -57 148 -122 136 -52 -10 -77 -54 -72 -124 5 -69 30
-94 213 -217 157 -105 203 -151 235 -234 26 -70 36 -205 20 -283 -38 -183
-153 -282 -343 -295 -145 -11 -263 29 -336 113 -62 69 -85 138 -86 259 l-1
100 135 0 135 0 6 -75 c10 -119 37 -160 107 -160 68 0 102 44 102 133 0 77
-25 108 -165 204 -207 141 -260 199 -291 318 -29 105 -10 260 41 337 69 105
157 146 311 147 67 1 111 -5 160 -20z m1652 -661 l2 -658 -155 0 -155 0 1 633
c0 347 3 644 6 659 l5 27 147 -2 146 -2 3 -657z m930 535 l-3 -127 -30 -2
c-16 -1 -74 -2 -127 -3 l-98 -1 0 -530 0 -530 -150 0 -150 0 0 530 0 530 -120
0 -120 0 0 130 0 130 400 0 401 0 -3 -127z m-1928 -133 l0 -251 118 3 117 3 3
248 2 247 150 0 150 0 0 -654 0 -654 -135 -7 c-74 -4 -141 -5 -150 -2 -13 6
-15 43 -15 277 l0 270 -120 0 -120 0 -2 -272 -3 -273 -147 -3 -148 -3 0 661 0
660 150 0 150 0 0 -250z m1843 -1225 c50 -24 77 -76 77 -150 l0 -55 -70 0
c-70 0 -70 0 -70 28 0 48 -12 72 -36 78 -33 8 -54 -12 -54 -51 0 -29 13 -45
106 -132 59 -54 113 -112 120 -130 18 -42 18 -125 0 -166 -27 -67 -103 -108
-196 -106 -123 2 -197 81 -188 202 l3 42 73 3 72 3 0 -47 c0 -49 20 -84 48
-84 26 0 52 32 52 63 0 32 -31 66 -144 161 -68 57 -95 109 -96 180 0 88 44
150 128 177 41 13 133 5 175 -16z m-1354 -10 c64 -38 76 -65 79 -178 5 -161
-30 -206 -162 -215 l-76 -5 0 -133 0 -134 -75 0 -75 0 0 338 c0 186 2 341 5
344 3 3 65 5 138 4 113 -1 137 -4 166 -21z m481 -39 c0 -76 0 -76 -111 -76
l-79 0 0 -65 0 -65 85 0 85 0 0 -65 0 -64 -82 -3 -83 -3 -3 -77 -3 -78 101 0
100 0 0 -65 0 -65 -175 0 -175 0 0 338 c0 186 3 342 7 345 3 4 80 7 170 7
l163 0 0 -64z m285 -117 c28 -96 55 -193 61 -215 7 -29 9 13 9 176 l0 215 73
3 72 3 0 -346 0 -345 -83 0 -83 0 -56 198 c-31 108 -60 212 -64 231 -6 20 -8
-56 -6 -198 l3 -231 -70 0 -71 0 0 345 0 346 83 -3 82 -3 50 -176z m-2305 46
l0 -125 45 0 45 0 0 125 0 125 75 0 75 0 0 -340 0 -340 -75 0 -75 0 0 145 0
145 -45 0 -45 0 0 -144 c0 -163 5 -154 -91 -152 l-54 1 -3 343 -2 342 75 0 75
0 0 -125z m614 103 c19 -87 116 -630 116 -648 0 -6 -31 -10 -79 -10 l-78 0 -7
60 -7 60 -54 0 -53 0 -7 -60 -7 -60 -74 0 c-44 0 -74 4 -74 10 0 15 110 631
116 653 5 15 19 17 104 17 95 0 100 -1 104 -22z m476 3 c59 -31 75 -71 75
-186 0 -155 -32 -195 -165 -205 l-75 -5 -3 -132 -3 -133 -74 0 -75 0 0 340 0
340 143 0 c120 0 148 -3 177 -19z"/>
<path d="M1760 655 c0 -82 1 -85 23 -85 12 0 33 7 45 16 18 12 22 25 22 69 0
62 -16 85 -61 85 l-29 0 0 -85z"/>
<path d="M871 597 c-7 -67 -15 -134 -18 -149 -5 -26 -3 -28 31 -28 34 0 36 2
36 33 -1 42 -27 257 -32 262 -2 2 -10 -51 -17 -118z"/>
<path d="M1302 658 c3 -82 3 -83 30 -86 40 -5 68 28 68 81 0 58 -22 87 -66 87
l-35 0 3 -82z"/>
</g>
</svg>
